Coordinates
version=1
nRows=18
nColumns=63
inDegrees=yes

Units are S.I. units (second, meters, Newtons, ...)
If the header above contains a line with 'inDegrees', this indicates whether rotational values are in degrees (yes) or radians (no).

endheader
time	pelvis_tilt	pelvis_list	pelvis_rotation	pelvis_tx	pelvis_ty	pelvis_tz	hip_flexion_r	hip_adduction_r	hip_rotation_r	knee_angle_r	knee_angle_r_beta	ankle_angle_r	subtalar_angle_r	mtp_angle_r	hip_flexion_l	hip_adduction_l	hip_rotation_l	knee_angle_l	knee_angle_l_beta	ankle_angle_l	subtalar_angle_l	mtp_angle_l	L5_S1_Flex_Ext	L5_S1_Lat_Bending	L5_S1_axial_rotation	L4_L5_Flex_Ext	L4_L5_Lat_Bending	L4_L5_axial_rotation	L3_L4_Flex_Ext	L3_L4_Lat_Bending	L3_L4_axial_rotation	L2_L3_Flex_Ext	L2_L3_Lat_Bending	L2_L3_axial_rotation	L1_L2_Flex_Ext	L1_L2_Lat_Bending	L1_L2_axial_rotation	L1_T12_Flex_Ext	L1_T12_Lat_Bending	L1_T12_axial_rotation	Abs_r3	Abs_r2	Abs_r1	Abs_t1	Abs_t2	neck_flexion	neck_bending	neck_rotation	arm_flex_r	arm_add_r	arm_rot_r	elbow_flex_r	pro_sup_r	wrist_flex_r	wrist_dev_r	arm_flex_l	arm_add_l	arm_rot_l	elbow_flex_l	pro_sup_l	wrist_flex_l	wrist_dev_l
0.000000	0.733484	-3.118929	92.595411	0.180558	1.026643	0.410407	-2.335109	-0.087885	-19.752753	10.320536	0.180127	29.305362	12.340812	0.000000	-4.469037	-0.454660	-3.887536	2.777484	0.048476	25.091793	1.599257	0.000000	0.308304	0.437557	-1.052319	0.572552	0.581950	-1.118089	0.506513	1.063875	-1.118089	0.352361	1.063875	-0.920779	0.286291	0.892265	-0.855009	0.176165	0.677775	-0.789239	2.202187	4.949728	-5.852682	0.000000	0.000000	27.867247	3.040754	4.034853	17.207559	-4.797007	63.258353	35.421582	81.760914	7.759556	6.179209	10.431539	-3.942798	44.357333	42.237868	66.344183	1.869019	15.887513
0.016667	0.437667	-2.808196	92.295274	0.181758	1.026802	0.408542	-2.976764	-0.310213	-19.767168	10.303174	0.179824	29.209818	12.612472	0.000000	-5.097558	-0.172028	-3.245539	2.301441	0.040168	25.281912	1.481769	0.000000	0.277023	0.389510	-0.991562	0.514459	0.518048	-1.053535	0.455121	0.947054	-1.053535	0.316610	0.947054	-0.867617	0.257243	0.794288	-0.805644	0.158291	0.603350	-0.743671	1.978747	4.406211	-5.514770	0.000000	0.000000	27.525382	3.613025	3.848738	16.841564	-4.677945	62.575095	35.711296	83.368112	7.910831	6.047320	10.343369	-4.111251	44.608669	41.964920	70.997565	2.395656	13.919122
0.033333	0.197009	-2.551803	92.074509	0.182747	1.026923	0.407021	-3.499755	-0.488771	-19.797743	10.280316	0.179425	29.187989	12.881103	0.000000	-5.609799	0.054680	-2.655614	1.932530	0.033729	25.349823	1.199755	0.000000	0.251764	0.349235	-0.946829	0.467550	0.464483	-1.006006	0.413622	0.849130	-1.006006	0.287741	0.849130	-0.828476	0.233788	0.712160	-0.769299	0.143858	0.540965	-0.710122	1.798322	3.950618	-5.265982	0.000000	0.000000	27.243724	4.088057	3.661225	16.455407	-4.598328	61.785397	36.066451	84.322323	8.118490	6.161683	10.247651	-4.254514	44.801072	41.787591	74.589422	2.812340	12.450478
0.050000	0.006864	-2.345668	91.924915	0.183546	1.027011	0.405815	-3.913613	-0.627124	-19.840819	10.253132	0.178951	29.230171	13.141965	0.000000	-6.015051	0.230115	-2.120497	1.661037	0.028991	25.311177	0.780247	0.000000	0.231985	0.316118	-0.916507	0.430820	0.420436	-0.973789	0.381129	0.768608	-0.973789	0.265136	0.768608	-0.801944	0.215422	0.644627	-0.744662	0.132556	0.489666	-0.687380	1.657048	3.575985	-5.097339	0.000000	0.000000	27.017591	4.474750	3.475621	16.054921	-4.554200	60.909099	36.477153	84.694158	8.371631	6.491719	10.145795	-4.375174	44.939830	41.697636	77.222588	3.127868	11.429504
0.066667	-0.137418	-2.185707	91.838296	0.184174	1.027068	0.404896	-4.227866	-0.728837	-19.892739	10.222791	0.178421	29.326655	13.390319	0.000000	-6.322604	0.358931	-1.642925	1.477249	0.025783	25.181628	0.250277	0.000000	0.217147	0.289541	-0.898981	0.403263	0.385090	-0.955167	0.356750	0.703990	-0.955167	0.248177	0.703990	-0.786608	0.201642	0.590432	-0.730422	0.124078	0.448499	-0.674236	1.551057	3.275348	-4.999862	0.000000	0.000000	26.842299	4.782008	3.295236	15.645939	-4.541601	59.966042	36.933508	84.554229	8.659349	7.006848	10.039212	-4.475822	45.030229	41.686810	78.999898	3.351037	10.804124
0.083333	-0.240484	-2.067837	91.806452	0.184652	1.027099	0.404234	-4.452044	-0.797472	-19.949845	10.190461	0.177857	29.467738	13.621426	0.000000	-6.541747	0.445780	-1.225635	1.371453	0.023936	24.976826	-0.363121	0.000000	0.206707	0.268890	-0.892636	0.383875	0.357624	-0.948426	0.339599	0.653780	-0.948426	0.236245	0.653780	-0.781057	0.191948	0.548321	-0.725267	0.118112	0.416511	-0.669477	1.476487	3.041742	-4.964574	0.000000	0.000000	26.713166	5.018735	3.123375	15.234292	-4.556576	58.976065	37.425622	83.973146	8.970743	7.676489	9.929312	-4.559046	45.077558	41.746869	80.024186	3.490641	10.522260
0.100000	-0.306984	-1.987973	91.821186	0.184999	1.027107	0.403800	-4.595677	-0.836596	-20.008480	10.157312	0.177279	29.643711	13.830547	0.000000	-6.681772	0.495313	-0.871363	1.333934	0.023282	24.712423	-1.032915	0.000000	0.200125	0.253550	-0.895858	0.371651	0.337221	-0.951849	0.328785	0.616481	-0.951849	0.228722	0.616481	-0.783876	0.185836	0.517039	-0.727885	0.114351	0.392748	-0.671894	1.429470	2.868205	-4.982495	0.000000	0.000000	26.625510	5.193832	2.963346	14.825812	-4.595165	57.959008	37.943601	83.021520	9.294908	8.470063	9.817505	-4.627435	45.087104	41.869568	80.398284	3.555479	10.531834
0.116667	-0.341565	-1.942032	91.874299	0.185237	1.027094	0.403565	-4.668293	-0.849771	-20.064985	10.124512	0.176706	29.844870	14.012943	0.000000	-6.751967	0.512184	-0.582847	1.354981	0.023649	24.404071	-1.732073	0.000000	0.196859	0.242903	-0.907033	0.365586	0.323061	-0.963723	0.323419	0.590595	-0.963723	0.224990	0.590595	-0.793654	0.182803	0.495328	-0.736965	0.112485	0.376257	-0.680275	1.406142	2.747771	-5.044647	0.000000	0.000000	26.574647	5.316203	2.818456	14.426333	-4.653412	56.934712	38.477551	81.769963	9.620942	9.356989	9.705204	-4.683578	45.064153	42.046663	80.225027	3.554345	10.780771
0.133333	-0.348876	-1.925932	91.957593	0.185384	1.027066	0.403499	-4.679422	-0.840563	-20.115702	10.093231	0.176160	30.061508	14.163874	0.000000	-6.761623	0.501046	-0.362821	1.424880	0.024869	24.067421	-2.433561	0.000000	0.196368	0.236336	-0.924547	0.364675	0.314326	-0.982331	0.322613	0.574627	-0.982331	0.224429	0.574627	-0.808978	0.182347	0.481936	-0.751194	0.112205	0.366084	-0.693410	1.402638	2.673476	-5.142050	0.000000	0.000000	26.555896	5.394751	2.692014	14.041686	-4.727358	55.923016	39.017577	80.289086	9.937941	10.306687	9.593816	-4.730063	45.013994	42.269908	79.607248	3.496037	11.216992
0.150000	-0.333565	-1.935588	92.062871	0.185461	1.027024	0.403573	-4.638593	-0.812535	-20.156975	10.064637	0.175661	30.283918	14.278600	0.000000	-6.720031	0.466550	-0.214024	1.533917	0.026772	23.718126	-3.110347	0.000000	0.198112	0.233231	-0.946784	0.367913	0.310197	-1.005958	0.325478	0.567078	-1.005958	0.226422	0.567078	-0.828436	0.183967	0.475605	-0.769262	0.113201	0.361275	-0.710088	1.415092	2.638357	-5.265727	0.000000	0.000000	26.564573	5.438378	2.587326	13.677703	-4.813046	54.943761	39.553787	78.649500	10.235002	11.288578	9.484755	-4.769480	44.941914	42.531060	78.647782	3.389352	11.788421
0.166667	-0.300280	-1.966917	92.181933	0.185488	1.026973	0.403758	-4.555336	-0.769251	-20.185145	10.039899	0.175229	30.502396	14.352384	0.000000	-6.636480	0.413349	-0.139191	1.672380	0.029189	23.371836	-3.735398	0.000000	0.201548	0.232974	-0.972131	0.374295	0.309856	-1.032889	0.331124	0.566453	-1.032889	0.230350	0.566453	-0.850614	0.187158	0.475081	-0.789856	0.115165	0.360877	-0.729098	1.439639	2.635450	-5.406698	0.000000	0.000000	26.595996	5.455987	2.507700	13.340217	-4.906519	54.016786	40.076285	76.921816	10.501223	12.272081	9.379429	-4.804418	44.853199	42.821873	77.449462	3.243084	12.442980
0.183333	-0.248674	-2.023900	92.312712	0.185492	1.026896	0.403959	-4.441157	-0.707399	-20.218625	10.012372	0.174749	30.691430	14.380237	0.000000	-6.512736	0.335641	-0.246071	1.849275	0.032276	23.064468	-4.167001	0.000000	0.207192	0.235931	-1.004635	0.384776	0.313788	-1.067424	0.340396	0.573642	-1.067424	0.236800	0.573642	-0.879055	0.192398	0.481110	-0.816266	0.118390	0.365457	-0.753476	1.479952	2.668895	-5.587477	0.000000	0.000000	26.658200	5.463488	2.507409	13.091942	-4.990638	53.295459	40.526996	75.565670	10.697409	13.068947	9.236521	-4.829959	44.656267	43.160968	76.139146	2.926982	12.983497
0.200000	-0.199925	-2.089605	92.413143	0.185548	1.026847	0.404215	-4.307248	-0.646120	-20.170474	9.999478	0.174524	30.849687	14.314581	0.000000	-6.368354	0.257782	-0.562759	2.026972	0.035377	22.863361	-4.269713	0.000000	0.211612	0.239179	-1.025052	0.392985	0.318108	-1.089118	0.347657	0.581541	-1.089118	0.241851	0.581541	-0.896921	0.196503	0.487734	-0.832855	0.120915	0.370489	-0.768789	1.511524	2.705644	-5.701032	0.000000	0.000000	26.738246	5.462459	2.526632	12.864623	-5.077530	52.590422	40.953402	74.199139	10.830367	13.833946	9.175169	-4.889165	44.707007	43.476481	74.643136	2.560410	13.380690
0.216667	-0.156487	-2.161610	92.505065	0.185619	1.026807	0.404475	-4.167239	-0.587484	-20.085942	9.997906	0.174496	30.969108	14.171024	0.000000	-6.225159	0.189402	-0.757064	2.165608	0.037797	22.675797	-4.468516	0.000000	0.215221	0.242090	-1.045873	0.399687	0.321979	-1.111241	0.353587	0.588617	-1.111241	0.245976	0.588617	-0.915139	0.199854	0.493669	-0.849772	0.122977	0.374997	-0.784405	1.537303	2.738568	-5.816834	0.000000	0.000000	26.820167	5.489143	2.587974	12.682423	-5.153545	51.994783	41.337411	72.882399	10.887173	14.521951	9.084180	-4.933366	44.547182	43.791540	73.787293	2.440639	13.720692
0.233333	-0.115468	-2.233444	92.563872	0.185733	1.026773	0.404729	-4.027200	-0.534116	-19.996595	10.014961	0.174794	31.041411	14.003589	0.000000	-6.088219	0.126836	-0.964727	2.277373	0.039748	22.547130	-4.586391	0.000000	0.217752	0.244902	-1.058366	0.404387	0.325720	-1.124514	0.357745	0.595455	-1.124514	0.248869	0.595455	-0.926070	0.202205	0.499404	-0.859922	0.124424	0.379353	-0.793775	1.555382	2.770380	-5.886315	0.000000	0.000000	26.888515	5.525610	2.668137	12.527617	-5.228281	51.479960	41.696372	71.654692	10.875146	15.158135	9.008604	-4.980211	44.391196	44.101722	73.225484	2.388915	14.008646
0.250000	-0.081952	-2.295435	92.583736	0.185922	1.026755	0.404983	-3.899838	-0.475548	-19.761468	10.035541	0.175153	31.033669	13.622313	0.000000	-5.960321	0.068852	-1.450393	2.385569	0.041636	22.561356	-4.247259	0.000000	0.218142	0.246393	-1.064531	0.405111	0.327703	-1.131064	0.358385	0.599080	-1.131064	0.249314	0.599080	-0.931465	0.202566	0.502445	-0.864932	0.124646	0.381663	-0.798398	1.558164	2.787247	-5.920603	0.000000	0.000000	26.936632	5.592817	2.758392	12.431252	-5.292294	51.178153	42.000294	70.507488	10.731069	15.668758	8.960912	-5.064390	44.375809	44.420321	72.542184	2.200815	14.223883
0.266667	-0.051919	-2.346575	92.579736	0.186139	1.026731	0.405201	-3.792442	-0.423543	-19.574602	10.069061	0.175738	30.975718	13.259165	0.000000	-5.859963	0.018376	-1.844385	2.457346	0.042889	22.593951	-3.954192	0.000000	0.217113	0.247080	-1.067783	0.403201	0.328616	-1.134520	0.356696	0.600750	-1.134520	0.248139	0.600750	-0.934310	0.201611	0.503845	-0.867574	0.124059	0.382727	-0.800838	1.550819	2.795015	-5.938691	0.000000	0.000000	26.964909	5.680830	2.843536	12.349553	-5.342399	50.979520	42.256072	69.581055	10.514464	16.053410	8.889144	-5.137546	44.248818	44.720689	72.318002	2.130505	14.348608
0.283333	-0.024525	-2.388705	92.531037	0.186403	1.026697	0.405383	-3.700423	-0.377630	-19.403187	10.114888	0.176538	30.877237	12.905805	0.000000	-5.783497	-0.024595	-2.290046	2.503952	0.043702	22.687649	-3.522997	0.000000	0.215512	0.247466	-1.063110	0.400228	0.329130	-1.129554	0.354065	0.601689	-1.129554	0.246309	0.601689	-0.930221	0.200125	0.504633	-0.863777	0.123144	0.383325	-0.797332	1.539384	2.799387	-5.912698	0.000000	0.000000	26.971293	5.785058	2.941628	12.279706	-5.391202	50.903705	42.475116	68.742028	10.233632	16.383045	8.852369	-5.226278	44.242616	45.006692	72.244151	1.988678	14.467482
